<svg width="174" height="21" viewBox="0 0 174 21" fill="none" xmlns="http://www.w3.org/2000/svg">
<g clip-path="url(#clip0_841_5312)">
<path d="M149.314 8.66651V12.2771H157.975V8.66651H149.314Z" fill="white"/>
<path d="M166.754 20.7261C162.716 20.7261 159.521 18.6718 159.521 14.4571V13.8142H164.615C164.615 15.0951 165.209 16.5113 166.7 16.5113C167.755 16.5113 168.649 15.6848 168.649 14.6166C168.649 13.3357 167.564 12.9104 166.509 12.456C165.915 12.1902 165.317 11.9485 164.723 11.7068C162.122 10.6386 159.821 9.14511 159.821 6.0517C159.821 2.36861 163.422 0.237061 166.838 0.237061C168.786 0.237061 170.984 0.957245 172.255 2.47978C173.286 3.73165 173.526 4.82884 173.585 6.37554H168.521C168.359 5.28318 167.981 4.45666 166.681 4.45666C165.788 4.45666 164.919 5.07051 164.919 6.00337C164.919 6.29821 164.944 6.58821 165.11 6.82989C165.596 7.63224 168.226 8.64243 169.066 9.01944C171.72 10.223 173.752 11.5812 173.752 14.6746C173.752 18.812 170.719 20.7309 166.764 20.7309L166.754 20.7261Z" fill="white"/>
<path d="M0.206055 0.628662H5.31439V20.3201H0.206055V0.628662Z" fill="white"/>
<path d="M8.23926 0.628662H12.641L20.3697 13.0023L20.4237 12.9491L20.2078 0.628662H25.0953V20.3201H20.6641L13.0483 8.34768L12.9943 8.37668L13.1317 20.325H8.24416V0.628662H8.23926Z" fill="white"/>
<path d="M28.7466 0.628662H33.1483L40.877 13.0023L40.931 12.9491L40.7151 0.628662H45.6026V20.3201H41.1715L33.5556 8.34768L33.5016 8.37668L33.639 20.325H28.7515V0.628662H28.7466Z" fill="white"/>
<path d="M58.9253 0.256592C65.0837 0.256592 69.4903 4.99337 69.4903 10.4745C69.4903 15.9556 65.1132 20.6924 58.9007 20.6924C52.6883 20.6924 48.3896 15.772 48.3896 10.7113C48.3896 9.40631 48.581 7.94178 49.1748 6.50624C50.2249 3.95418 53.3311 0.256592 58.9253 0.256592ZM59.0038 16.2746C62.6253 16.2746 64.382 13.0266 64.382 10.4987C64.382 7.97078 62.6253 4.66953 58.9498 4.66953C55.2744 4.66953 53.4931 7.65177 53.4931 10.4165C53.4931 13.4519 55.5737 16.2698 59.0038 16.2698V16.2746Z" fill="white"/>
<path d="M92.7698 12.9492C91.6068 17.6038 87.4995 20.6924 82.666 20.6924C76.3996 20.6924 72.1304 15.772 72.1304 10.4455C72.1304 5.41872 76.0757 0.256592 82.612 0.256592C89.1483 0.256592 92.23 5.01754 92.7698 8.10612H87.421C86.8518 6.64158 85.3404 4.67437 82.5875 4.67437C79.1574 4.67437 77.2387 7.6276 77.2387 10.4213C77.2387 13.4036 79.2899 16.2746 82.6169 16.2746C85.944 16.2746 87.1021 13.6404 87.4259 12.9492H92.7747H92.7698Z" fill="white"/>
<path d="M94.7222 0.628662H105.827V5.04644H99.6146V8.10601H105.641V12.5238H99.6146V15.9024H105.827V20.3201H94.7222V0.628662Z" fill="white"/>
<path d="M113.964 17.4732L112.909 20.3201H107.423L115.446 0.628662H119.47L127.414 20.3201H121.874L120.903 17.4732H113.959H113.964ZM115.367 13.4808H119.553L117.502 6.74781H117.418L115.367 13.4808Z" fill="white"/>
<path d="M130.167 0.628662H134.569L142.297 13.0023L142.351 12.9491L142.136 0.628662H147.023V20.3201H142.592L134.971 8.34768L134.917 8.37668L135.055 20.325H130.167V0.628662Z" fill="white"/>
</g>
<defs>
<clipPath id="clip0_841_5312">
<rect width="174" height="21" fill="white"/>
</clipPath>
</defs>
</svg>
